<svg xmlns="http://www.w3.org/2000/svg" xmlns:xlink="http://www.w3.org/1999/xlink" viewBox="0 0 333.99 334.06"><defs><style>.cls-1{fill:none;}.cls-2{clip-path:url(#clip-path);}.cls-3{fill:#070d3f;}.cls-4{fill:#e8b903;}</style><clipPath id="clip-path" transform="translate(0 0)"><rect class="cls-1" width="334" height="334.07"/></clipPath></defs><g id="Calque_2" data-name="Calque 2"><g id="bckg"><g class="cls-2"><g id="Groupe_616" data-name="Groupe 616"><path class="cls-3" d="M267,154.85a67.52,67.52,0,1,0-87.13-87.46A91.63,91.63,0,0,0,91.54,0h0A91.25,91.25,0,0,0,67,179.22a67.52,67.52,0,1,0,87.12,87.45,91.64,91.64,0,0,0,88.33,67.39c50.48,0,91.54-40.95,91.54-91.28A91.48,91.48,0,0,0,267,154.85ZM243,43.7a48.07,48.07,0,1,1-48.2,48.07A48.19,48.19,0,0,1,243,43.7Zm-24.44,111a91.71,91.71,0,0,0-64.21,63.63,68,68,0,0,0-38.8-38.94,91.72,91.72,0,0,0,64.2-63.63A67.94,67.94,0,0,0,218.51,154.69Zm-199-63.4A71.94,71.94,0,0,1,91.53,19.43h0a71.86,71.86,0,1,1,0,143.72h0a72,72,0,0,1-72-71.86ZM91.05,290.37a48.08,48.08,0,1,1,48.2-48.08A48.19,48.19,0,0,1,91.05,290.37Zm151.41,24.27a71.86,71.86,0,1,1,72.06-71.86A72,72,0,0,1,242.46,314.64Z" transform="translate(0 0)"/><path id="Tracé_576" data-name="Tracé 576" class="cls-4" d="M158.72,81.57H91.53a9.72,9.72,0,0,0-9.73,9.72v67a61.73,61.73,0,0,0,19.47,0V101h57.45a60.89,60.89,0,0,0,0-19.43" transform="translate(0 0)"/><path id="Tracé_577" data-name="Tracé 577" class="cls-4" d="M252.69,134.66V91.29A9.73,9.73,0,0,0,243,81.57H200.11a60.89,60.89,0,0,0,0,19.43h33.11v33.66a61.73,61.73,0,0,0,19.47,0" transform="translate(0 0)"/><path id="Tracé_578" data-name="Tracé 578" class="cls-4" d="M175.76,251.84H243a9.72,9.72,0,0,0,9.74-9.71h0V175.29a61.73,61.73,0,0,0-19.47,0v57.29H175.76a61.47,61.47,0,0,0,0,19.43" transform="translate(0 0)"/><path id="Tracé_579" data-name="Tracé 579" class="cls-4" d="M81.8,198.76v43.37a9.71,9.71,0,0,0,9.73,9.71h42.85a60.83,60.83,0,0,0,0-19.42H101.27V198.76a61.14,61.14,0,0,0-19.47,0" transform="translate(0 0)"/></g></g></g></g></svg>